<svg width="160" height="160" viewBox="0 0 160 160" xmlns="http://www.w3.org/2000/svg">
  <defs>
    <linearGradient id="gs-gradient" x1="0%" y1="0%" x2="100%" y2="100%">
      <stop offset="0%" stop-color="#7b0f1a" />
      <stop offset="100%" stop-color="#fbbf24" />
    </linearGradient>
  </defs>
  <rect x="8" y="8" width="144" height="144" rx="36" fill="url(#gs-gradient)" />
  <path d="M80 38c-23 0-40 17-40 42s17 42 40 42c12 0 22-4 30-12l-11-11c-5 5-11 8-19 8-14 0-24-11-24-27s10-27 24-27c12 0 22 8 24 21h-21v16h39c1-4 2-8 2-13 0-25-17-39-44-39z" fill="#fff"/>
  <text x="80" y="118" text-anchor="middle" font-size="32" font-family="'Arial Black', sans-serif" fill="#fff">GS</text>
</svg>
