<svg xmlns="http://www.w3.org/2000/svg" width="64" height="64" viewBox="0 0 1024 1024">
  <defs>
    <linearGradient id="favBg" x1="0" y1="0" x2="1" y2="1">
      <stop offset="0" stop-color="#f97316"/>
      <stop offset="1" stop-color="#ef4444"/>
    </linearGradient>
    <linearGradient id="favBody" x1="0.5" y1="0.1" x2="0.5" y2="1">
      <stop offset="0" stop-color="#fff7ed"/>
      <stop offset="1" stop-color="#fb923c"/>
    </linearGradient>
  </defs>
  <rect width="1024" height="1024" rx="220" fill="url(#favBg)"/>
  <path d="M512 210c-112 88-168 182-176 272-6 70 30 142 110 202-56-20-106-70-120-124-18 120 56 230 208 254 140-18 214-130 200-244-48 70-134 110-222 122 74-40 116-104 114-162-4-76-46-166-124-250-10-12-24-24-34-36-16 14-60 62-86 100z" fill="url(#favBody)"/>
  <circle cx="586" cy="338" r="58" fill="#fef3c7"/>
</svg>
